<?xml version="1.0" encoding="utf-8"?>
<!-- Generator: Adobe Illustrator 24.0.1, SVG Export Plug-In . SVG Version: 6.00 Build 0)  -->
<svg version="1.1" id="Layer_1" xmlns="http://www.w3.org/2000/svg" xmlns:xlink="http://www.w3.org/1999/xlink" x="0px" y="0px"
	 viewBox="0 0 512 640" style="enable-background:new 0 0 512 640;" xml:space="preserve">
<style type="text/css">
	.st0{fill:#FFFFFF;}
</style>
<g>
	<path class="st0" d="M454.3,388.4c-34.8-28.1-72.6-51.5-112.3-71.9c-6.4-3.3-22.3-18.7-22.1-21.1c10.2-2.6,20.9-4.7,31.3-8.1
		c10.4-3.3,20.7-7.3,30.6-11.8c10-4.6,10.8-11.9,3.5-20.2c-14.6-16.6-21.2-36.8-23.9-58c-2.8-21.5-3.4-43.3-4.6-64.9
		c-1.2-22-3.1-43.8-11.8-64.5c-7.5-18-19.6-29.9-40.1-31.1c-1.9-0.1-4.4-0.1-5.6-1.3C288.9,25.4,275.8,22,262,20c-4,0-8,0-12,0
		c-16.9,3-32.7,8.8-46.8,18.8c-29.1,20.6-44.7,49.4-49.2,84.1c-2.2,16.8-1.8,33.9-3.2,50.8c-2.3,27.3-6.9,54-23.3,77.1
		c-0.1,0.2-0.3,0.4-0.4,0.6c-12.3,16-11.6,20.1,7.7,27.6c15.3,5.9,31.3,9.8,47,14.6c2.6,0.8,5.2,1.2,7.4,1.8
		c0.2,2.5-11.3,16.7-16.9,19.8c-19.2,10.6-39.2,20.3-57.4,32.5c-24,16.1-46.6,34.2-69.6,51.9C36.8,406,34,415.7,32,426.1
		c0,22,0,42.9,0,65.9c148,0,300,0,448,0c0-23,0-43.8,0-65.9C478,408.7,466.8,398.5,454.3,388.4z"/>
</g>
</svg>
