<?xml version="1.0" encoding="utf-8"?>
<!-- Generator: Adobe Illustrator 24.0.1, SVG Export Plug-In . SVG Version: 6.00 Build 0)  -->
<svg version="1.1" id="Layer_1" xmlns="http://www.w3.org/2000/svg" xmlns:xlink="http://www.w3.org/1999/xlink" x="0px" y="0px"
	 viewBox="0 0 512 640" style="enable-background:new 0 0 512 640;" xml:space="preserve">
<style type="text/css">
	.st0{fill:#FFFFFF;}
</style>
<path class="st0" d="M483,426.7c0.1-14.6-7.5-25.6-20.7-34.5c-37.9-25.6-89.7-48.1-132.5-66.9c-4.6-2-6.5-4.4-6.3-8.9
	c0.4-8.1-0.1-16.2,0.2-24.3c0.1-3.8,1.4-8,2.1-11c-0.1,0-0.3,0-0.4,0c0.6-1,1.2-2.1,1.7-3.2c0,0,0-0.2,0-0.2
	c5.4-11.5,12.1-22.4,18.5-33.6c1.1-2,2.8-3.7,4.2-5.6c13.4-18.2,19.9-38.1,18.3-59.9c-0.2-3.1-0.9-6.6-2.8-9
	c-5.4-6.6-3.7-13.6-2.6-20.6c2.3-15,3.4-30-0.6-44.9c-4.9-18.3-15.3-32-36.9-37c-2-0.5-4-2.4-5-4.2c-12-21.5-36.9-32.9-64-32.5
	c-26.5-0.4-52,11-63.9,32.5c-1,1.7-3,3.7-5,4.2c-21.6,5-32,18.7-36.9,37c-4,14.9-2.9,29.9-0.6,44.9c1.1,7,2.8,14-2.6,20.6
	c-1.9,2.4-2.6,5.9-2.8,9c-1.6,21.8,4.9,41.7,18.3,59.9c1.4,1.9,3,3.6,4.2,5.5c6.3,11.2,13.1,22,18.5,33.5c0,0,0,0.3,0,0.3
	c0.5,1,1,2.2,1.7,3.2c-0.4,0-0.7,0-1.1,0c0.7,3,2,7.3,2.1,11c0.3,8.1-0.2,16.2,0.2,24.4c0.2,4.5-1.7,6.8-6.3,8.9
	c-42.9,18.8-94.7,41.3-132.5,66.9c-13.2,8.9-20.8,19.9-20.7,34.5c0.1,10.3-0.2,20.6,0.1,30.9c0.5,14.6,10.9,23.9,27.7,24
	c61.6,0.2,135,0.1,196.6,0c0.9,0,2.8-0.1,2.8-0.4c0,0.2,1.8,0.4,2.6,0.4c61.6,0.1,134.9,0.2,196.6,0c16.8-0.1,27.2-9.4,27.6-24
	C483.3,447.3,483,437,483,426.7z"/>
</svg>
