<svg xmlns="http://www.w3.org/2000/svg" xmlns:xlink="http://www.w3.org/1999/xlink" version="1.1" x="0px" y="0px" viewBox="0 0 512 640" enable-background="new 0 0 512 512" xml:space="preserve"><path d="M483.03,426.699c0.084-14.644-7.483-25.607-20.677-34.532c-37.85-25.6-89.668-48.12-132.528-66.923  c-4.604-2.02-6.546-4.362-6.317-8.89c0.414-8.141-0.109-16.161,0.217-24.308c0.15-3.75,1.385-8.047,2.127-11.047  c-0.138,0-0.278,0-0.417,0c0.65-1,1.222-2.128,1.695-3.161c0.014-0.03,0.027-0.189,0.041-0.219  c5.39-11.521,12.144-22.426,18.458-33.592c1.115-1.972,2.783-3.72,4.154-5.58c13.401-18.174,19.914-38.097,18.306-59.933  c-0.225-3.063-0.898-6.607-2.815-8.975c-5.352-6.61-3.664-13.583-2.571-20.617c2.33-15.002,3.383-29.983-0.574-44.918  c-4.85-18.307-15.325-32.04-36.877-37.046c-1.953-0.453-4.047-2.431-5.011-4.167c-11.956-21.522-36.943-32.922-64-32.483  c-26.541-0.438-51.957,10.961-63.913,32.483c-0.964,1.736-3.015,3.713-4.967,4.166c-21.552,5.006-32.005,18.737-36.856,37.045  c-3.957,14.935-2.893,29.913-0.562,44.916c1.092,7.034,2.786,14.003-2.567,20.613c-1.917,2.368-2.586,5.904-2.812,8.966  c-1.609,21.836,4.906,41.743,18.307,59.917c1.371,1.859,3.04,3.575,4.155,5.547c6.315,11.166,13.069,22.006,18.459,33.527  c0.014,0.029,0.028,0.319,0.041,0.349c0.474,1.033,1.046,2.161,1.695,3.161c-0.366,0-0.735,0-1.1,0  c0.743,3,1.977,7.296,2.128,11.047c0.327,8.147-0.197,16.242,0.216,24.382c0.23,4.528-1.713,6.833-6.317,8.853  c-42.861,18.804-94.678,41.305-132.528,66.905c-13.195,8.924-20.761,19.878-20.678,34.522c0.059,10.303-0.24,20.607,0.091,30.902  c0.469,14.591,10.86,23.896,27.689,23.958c61.636,0.224,135.009,0.121,196.647,0.035c0.858-0.001,2.781-0.14,2.781-0.384  c0,0.244,1.76,0.382,2.618,0.383c61.638,0.085,134.929,0.188,196.565-0.037c16.828-0.061,27.179-9.368,27.648-23.96  C483.31,447.311,482.971,437.002,483.03,426.699z"/><text x="0" y="527" fill="#000000" font-size="5px" font-weight="bold" font-family="'Helvetica Neue', Helvetica, Arial-Unicode, Arial, Sans-serif">Created by SBTS</text><text x="0" y="532" fill="#000000" font-size="5px" font-weight="bold" font-family="'Helvetica Neue', Helvetica, Arial-Unicode, Arial, Sans-serif">from the Noun Project</text></svg>