<?xml version="1.0" encoding="utf-8"?>
<!-- Generator: Adobe Illustrator 24.0.1, SVG Export Plug-In . SVG Version: 6.00 Build 0)  -->
<svg version="1.1" id="Layer_1" xmlns="http://www.w3.org/2000/svg" xmlns:xlink="http://www.w3.org/1999/xlink" x="0px" y="0px"
	 viewBox="0 0 32 40" style="enable-background:new 0 0 32 40;" xml:space="preserve">
<style type="text/css">
	.st0{fill:#FFFFFF;}
</style>
<title>Artboard 35</title>
<path class="st0" d="M26.9,21.1l-2.2-1.3l1.8-0.5c0.5-0.1,0.9-0.7,0.7-1.2c-0.1-0.5-0.7-0.9-1.2-0.7c0,0,0,0-0.1,0l-3.7,1L18,16
	l4.2-2.4l3.7,1c0.5,0.1,1.1-0.2,1.2-0.7c0.1-0.5-0.2-1-0.7-1.2l-1.8-0.5l2.2-1.3c0.5-0.3,0.7-0.9,0.4-1.3C27.1,9,26.5,8.9,26,9.1
	c0,0,0,0-0.1,0l-2.2,1.3l0.5-1.8c0.2-0.5-0.1-1.1-0.7-1.2c-0.5-0.2-1.1,0.1-1.2,0.7c0,0,0,0,0,0.1l-1,3.7L17,14.3V9.4l2.7-2.7
	c0.4-0.4,0.3-1.1-0.1-1.4c-0.4-0.3-0.9-0.3-1.3,0L17,6.6V4c0-0.6-0.4-1-1-1c-0.6,0-1,0.4-1,1v2.6l-1.3-1.3c-0.4-0.4-1.1-0.3-1.4,0.1
	c-0.3,0.4-0.3,0.9,0,1.3L15,9.4v4.9l-4.2-2.4l-1-3.7C9.7,7.6,9.1,7.3,8.6,7.4C8.1,7.5,7.7,8,7.9,8.6c0,0,0,0,0,0.1l0.5,1.8L6.1,9.1
	C5.6,8.9,5,9.1,4.8,9.6c-0.2,0.5-0.1,1,0.3,1.3l2.2,1.3l-1.8,0.5c-0.5,0.1-0.9,0.7-0.7,1.2C5,14.4,5.5,14.7,6,14.6c0,0,0,0,0.1,0
	l3.7-1L14,16l-4.2,2.4l-3.7-1c-0.5-0.2-1.1,0.1-1.2,0.7c-0.2,0.5,0.1,1.1,0.7,1.2c0,0,0,0,0.1,0l1.8,0.5l-2.2,1.3
	c-0.5,0.3-0.6,0.9-0.3,1.4c0.3,0.4,0.8,0.6,1.3,0.3l2.2-1.3l-0.5,1.8c-0.2,0.5,0.1,1.1,0.7,1.2c0.5,0.2,1.1-0.1,1.2-0.7
	c0,0,0,0,0-0.1l1-3.7l4.2-2.4v4.9l-2.7,2.7c-0.4,0.4-0.3,1.1,0.1,1.4c0.4,0.3,0.9,0.3,1.3,0l1.3-1.3V28c0,0.6,0.4,1,1,1
	c0.6,0,1-0.4,1-1v-2.6l1.3,1.3c0.4,0.4,1.1,0.3,1.4-0.1c0.3-0.4,0.3-0.9,0-1.3L17,22.6v-4.9l4.2,2.4l1,3.7c0.1,0.5,0.7,0.9,1.2,0.7
	c0.5-0.1,0.9-0.7,0.7-1.2c0,0,0,0,0-0.1l-0.5-1.8l2.2,1.3c0.5,0.3,1.1,0.1,1.3-0.4C27.5,22,27.3,21.4,26.9,21.1L26.9,21.1z"/>
</svg>
