<?xml version="1.0" encoding="utf-8"?>
<!-- Generator: Adobe Illustrator 24.0.1, SVG Export Plug-In . SVG Version: 6.00 Build 0)  -->
<svg version="1.1" id="Layer_1" xmlns="http://www.w3.org/2000/svg" xmlns:xlink="http://www.w3.org/1999/xlink" x="0px" y="0px"
	 viewBox="0 0 32 40" style="enable-background:new 0 0 32 40;" xml:space="preserve">
<style type="text/css">
	.st0{fill:#FFFFFF;}
</style>
<title>Artboard 12</title>
<path class="st0" d="M16,7c-5,0-9,4-9,9s4,9,9,9s9-4,9-9S21,7,16,7z M16,23c-3.9,0-7-3.1-7-7s3.1-7,7-7s7,3.1,7,7S19.9,23,16,23z"/>
<path class="st0" d="M16,5c0.6,0,1-0.4,1-1V2c0-0.6-0.4-1-1-1c-0.6,0-1,0.4-1,1v2C15,4.6,15.4,5,16,5z"/>
<path class="st0" d="M9.1,6.1c0.3,0.5,0.9,0.6,1.4,0.3c0.4-0.3,0.6-0.8,0.3-1.3l-1-1.7C9.6,2.9,8.9,2.8,8.5,3.1
	C8,3.4,7.9,3.9,8.1,4.4L9.1,6.1z"/>
<path class="st0" d="M6.1,9.1l-1.7-1C3.9,7.9,3.3,8.1,3,8.6C2.8,9,2.9,9.6,3.4,9.9l1.7,1c0.5,0.3,1.1,0.1,1.3-0.4
	C6.7,10,6.5,9.4,6.1,9.1z"/>
<path class="st0" d="M5,16c0-0.6-0.4-1-1-1H2c-0.6,0-1,0.4-1,1c0,0.6,0.4,1,1,1h2C4.6,17,5,16.6,5,16z"/>
<path class="st0" d="M5.1,21.1l-1.7,1c-0.5,0.3-0.6,0.9-0.3,1.4c0.3,0.4,0.8,0.6,1.3,0.3l1.7-1c0.5-0.3,0.6-0.9,0.3-1.4
	C6.1,21,5.6,20.9,5.1,21.1z"/>
<path class="st0" d="M10.5,25.5c-0.5-0.3-1.1-0.1-1.4,0.4c0,0,0,0,0,0l-1,1.7c-0.3,0.5-0.1,1.1,0.4,1.3c0.5,0.2,1,0.1,1.3-0.3l1-1.7
	C11.1,26.4,11,25.8,10.5,25.5C10.5,25.5,10.5,25.5,10.5,25.5z"/>
<path class="st0" d="M16,27c-0.6,0-1,0.4-1,1v2c0,0.6,0.4,1,1,1c0.6,0,1-0.4,1-1v-2C17,27.4,16.6,27,16,27z"/>
<path class="st0" d="M22.9,25.9c-0.3-0.5-0.9-0.6-1.4-0.3c-0.4,0.3-0.6,0.8-0.3,1.3l1,1.7c0.3,0.5,0.9,0.6,1.4,0.3
	c0.4-0.3,0.6-0.8,0.3-1.3L22.9,25.9z"/>
<path class="st0" d="M28.6,22.1l-1.7-1c-0.5-0.3-1.1-0.1-1.3,0.4c-0.2,0.5-0.1,1,0.3,1.3l1.7,1c0.5,0.3,1.1,0.1,1.3-0.4
	C29.2,23,29.1,22.4,28.6,22.1z"/>
<path class="st0" d="M30,15h-2c-0.6,0-1,0.4-1,1c0,0.6,0.4,1,1,1h2c0.6,0,1-0.4,1-1C31,15.4,30.6,15,30,15z"/>
<path class="st0" d="M26.4,11c0.2,0,0.3,0,0.5-0.1l1.7-1C29.1,9.6,29.3,9,29,8.5c-0.3-0.5-0.9-0.7-1.3-0.4c0,0,0,0-0.1,0l-1.7,1
	c-0.5,0.3-0.6,0.9-0.4,1.4C25.7,10.8,26,11,26.4,11L26.4,11z"/>
<path class="st0" d="M21.5,6.5c0.5,0.3,1.1,0.1,1.4-0.4c0,0,0,0,0,0l1-1.7c0.3-0.5,0.1-1.1-0.4-1.3c-0.5-0.2-1-0.1-1.3,0.3l-1,1.7
	C20.9,5.6,21,6.2,21.5,6.5C21.5,6.5,21.5,6.5,21.5,6.5z"/>
</svg>
