<svg xmlns="http://www.w3.org/2000/svg" viewBox="0 0 32 40" x="0px" y="0px"><title>Artboard 12</title><path d="M16,7a9,9,0,1,0,9,9A9,9,0,0,0,16,7Zm0,16a7,7,0,1,1,7-7A7,7,0,0,1,16,23Z"/><path d="M16,5a1,1,0,0,0,1-1V2a1,1,0,0,0-2,0V4A1,1,0,0,0,16,5Z"/><path d="M9.13,6.11a1,1,0,0,0,1.73-1l-1-1.73a1,1,0,0,0-1.73,1Z"/><path d="M6.11,9.13l-1.73-1a1,1,0,0,0-1,1.73l1.73,1a1,1,0,0,0,1-1.73Z"/><path d="M5,16a1,1,0,0,0-1-1H2a1,1,0,0,0,0,2H4A1,1,0,0,0,5,16Z"/><path d="M5.11,21.13l-1.73,1a1,1,0,0,0,1,1.73l1.73-1a1,1,0,0,0-1-1.73Z"/><path d="M10.5,25.53a1,1,0,0,0-1.37.37l-1,1.73a1,1,0,0,0,1.73,1l1-1.73A1,1,0,0,0,10.5,25.53Z"/><path d="M16,27a1,1,0,0,0-1,1v2a1,1,0,0,0,2,0V28A1,1,0,0,0,16,27Z"/><path d="M22.87,25.89a1,1,0,0,0-1.73,1l1,1.73a1,1,0,0,0,1.73-1Z"/><path d="M28.62,22.13l-1.73-1a1,1,0,0,0-1,1.73l1.73,1a1,1,0,0,0,1-1.73Z"/><path d="M30,15H28a1,1,0,0,0,0,2h2a1,1,0,0,0,0-2Z"/><path d="M26.39,11a1,1,0,0,0,.5-.13l1.73-1a1,1,0,1,0-1-1.73l-1.73,1a1,1,0,0,0,.5,1.87Z"/><path d="M21.5,6.47a1,1,0,0,0,1.37-.37l1-1.73a1,1,0,0,0-1.73-1l-1,1.73A1,1,0,0,0,21.5,6.47Z"/><text x="0" y="47" fill="#000000" font-size="5px" font-weight="bold" font-family="'Helvetica Neue', Helvetica, Arial-Unicode, Arial, Sans-serif">Created by thiyagu</text><text x="0" y="52" fill="#000000" font-size="5px" font-weight="bold" font-family="'Helvetica Neue', Helvetica, Arial-Unicode, Arial, Sans-serif">from the Noun Project</text></svg>